<mxfile host="65bd71144e" modified="2020-11-18T04:13:39.435Z" agent="5.0 (Windows NT 10.0; Win64; x64) AppleWebKit/537.36 (KHTML, like Gecko) Code/1.51.1 Chrome/83.0.4103.122 Electron/9.3.3 Safari/537.36" version="13.6.5" etag="9WkcXU4WA4h3zR3R4D0o">
    <diagram id="m8fuvaSHEf_ZJC110AM4" name="ページ1">
        <mxGraphModel dx="1095" dy="621" grid="1" gridSize="10" guides="1" tooltips="1" connect="1" arrows="1" fold="1" page="1" pageScale="1" pageWidth="827" pageHeight="1169" math="0" shadow="0">
            <root>
                <mxCell id="0"/>
                <mxCell id="1" parent="0"/>
                <mxCell id="8" value="" style="edgeStyle=orthogonalEdgeStyle;rounded=0;orthogonalLoop=1;jettySize=auto;html=1;" edge="1" parent="1" target="7">
                    <mxGeometry relative="1" as="geometry">
                        <mxPoint x="290" y="170" as="sourcePoint"/>
                    </mxGeometry>
                </mxCell>
                <mxCell id="9" value="初回ロード時" style="rounded=0;whiteSpace=wrap;html=1;" vertex="1" parent="1">
                    <mxGeometry x="110" y="110" width="120" height="60" as="geometry"/>
                </mxCell>
                <mxCell id="10" value="ページ遷移時" style="rounded=0;whiteSpace=wrap;html=1;" vertex="1" parent="1">
                    <mxGeometry x="310" y="110" width="120" height="60" as="geometry"/>
                </mxCell>
                <mxCell id="11" value="戻るボタン遷移時" style="rounded=0;whiteSpace=wrap;html=1;" vertex="1" parent="1">
                    <mxGeometry x="500" y="110" width="120" height="60" as="geometry"/>
                </mxCell>
            </root>
        </mxGraphModel>
    </diagram>
</mxfile>